<?xml version="1.0" standalone="yes"?>
<svg xmlns="http://www.w3.org/2000/svg" width="316" height="330">
<path style="fill:#5b5979; stroke:none;" d="M0 0L0 330L316 330L316 0L0 0z"/>
<path style="fill:#675d92; stroke:none;" d="M153.996 23.0864C142.14 28.0626 130.077 45.9228 121 55L43 133C34.7844 141.216 26.5627 149.423 18.2855 157.576C15.7562 160.067 10.2921 164.091 10.3457 168C10.394 171.525 14.7582 174.745 17.0008 177L38 198L123 283L147 306.999C149.503 309.485 153.377 314.623 157.482 313.098C161.263 311.693 164.872 306.526 167.657 303.721C174.969 296.356 182.266 288.96 189.653 281.671C216.402 255.274 244.354 229.308 269.731 201.615C277.51 193.126 285.999 185.067 294.255 177.036C296.668 174.689 301.999 171.183 301.343 167.31C300.753 163.832 295.967 160.339 293.601 158.014L271.671 136.333C244.001 109.021 217.302 80.6497 189.232 53.7454C180.904 45.7628 173.072 37.2768 164.804 29.2354C162.058 26.5652 158.39 21.2425 153.996 23.0864z"/>
<path style="fill:#6f5fa3; stroke:none;" d="M154 25.1759C150.134 26.5076 146.803 31.197 144 34L122 56L44 134L20 158C17.5562 160.445 12.2943 164.14 12.3457 168C12.3926 171.524 16.759 174.746 19.0008 177L40 198L123 281L147 304.999C149.458 307.44 152.996 312.203 157 310.824C168.18 306.974 180.725 288.275 189 280L267 202C274.99 194.01 282.916 185.949 290.985 178.039C293.474 175.6 298.887 171.925 298.809 167.996C298.737 164.39 294.197 161.048 291.87 158.729L271 138L188 55L164 31.0008C161.542 28.5603 158.004 23.7968 154 25.1759z"/>
<path style="fill:#8064c6; stroke:none;" d="M128 115.428C98.2779 119.734 104 153.891 104 176C104 185.7 102.823 197.178 107.709 205.996C119.089 226.533 157.563 219 177 219C184.024 219 194.562 220.931 200.981 217.682C206.015 215.134 206.933 210.131 206.996 205C207.15 192.574 208.872 178.246 206.775 166.001C206.048 161.749 203.239 158.398 198.985 157.394C186.865 154.535 171.451 157 159 157C153.58 157 146.34 155.752 141.148 157.434C136.693 158.877 136.201 173.127 139.603 175.821C145.711 180.659 166.307 177 174 177C177.522 177 183.531 175.887 185.821 179.318C188.078 182.7 188.37 194.512 184.682 196.972C181.332 199.208 174.843 198 171 198L141 198C137.189 198 131.564 198.995 128.148 196.972C123.942 194.482 125.037 188.301 124.873 184.17C124.44 173.211 125.257 162.25 124.836 151.285C124.677 147.118 123.655 140.596 127.315 137.6C131.616 134.077 141.748 136 147 136L187 136C191.711 136 199.39 137.446 203.682 135.258C208.381 132.862 207.517 116.341 201.941 115.228C192.946 113.433 182.17 115 173 115C158.338 115 142.515 113.325 128 115.428z"/>
<path style="fill:#976af2; stroke:none;" d="M188 176C188 181.31 190.376 194.417 186.397 198.397C183.386 201.407 175.88 200 172 200L139 200C134.302 200 128.889 200.661 125.434 196.772C120.596 191.326 123 178.805 123 172C123 163.092 118.816 140.101 128.044 135.179C132.884 132.598 140.676 134 146 134L186 134C191.671 134 203.988 136.72 204.891 128.981C205.255 125.862 205.951 119.321 202.566 117.603C197.134 114.846 186.036 117 180 117C161.401 117 124.193 109.716 111.394 126.004C101.389 138.735 106 162.781 106 178C106 184.446 105.099 191.684 106.529 198C107.949 204.276 111.66 209.521 117 213.08C129.102 221.147 151.052 217 165 217C173.986 217 195.665 220.931 202.581 214.486C208.072 209.369 206.076 196.785 205.989 190.004C205.89 182.194 208.807 167.241 202.721 161.303C198.888 157.563 192.933 158.002 188 158L156 158C152.368 158 143.565 156.4 141.028 159.603C139.699 161.281 140.014 164.008 140.001 166C139.909 180.288 153.963 176 165 176L188 176z"/>
</svg>
