<svg width="213" height="58" viewBox="0 0 213 58" fill="none" xmlns="http://www.w3.org/2000/svg">
<circle cx="28.6351" cy="28.6351" r="28.6351" fill="url(#paint0_linear)" fill-opacity="0.05"/>
<path d="M51.0132 26.7414C51.2118 22.6156 48.3303 19.8786 45.0782 17.9995L42.9644 30.4178C44.4278 30.3361 45.1433 30.8917 45.4034 31.1531C45.7286 31.4799 46.5416 32.4603 45.566 34.0126C47.5986 33.6858 50.7732 31.725 51.0132 26.7414Z" fill="url(#paint1_linear)"/>
<path fill-rule="evenodd" clip-rule="evenodd" d="M23.2848 12.2834L20.7645 9.75068C24.5585 9.28771 34.5694 9.8814 44.2604 15.9598C44.423 16.6134 44.2604 17.5938 44.2604 17.5938L45.0734 18.0023C45.778 19.01 46.9759 21.8749 46.1303 25.2736C45.2848 28.6723 43.8268 30.1211 43.2035 30.4207C41.9027 30.4207 39.6913 31.1723 38.9759 34.5056C38.2604 37.839 36.8892 38.5634 36.2929 38.5089L21.984 38.6723L12.5531 33.1168L11.171 21.5971L13.8539 18.0023L18.6507 14.0808L22.0653 12.6919L23.2848 12.2834ZM40.1846 17.042C39.5536 17.6993 38.9636 18.0146 38.7952 18.1001C35.1108 17.3164 33.7834 15.4102 33.7834 15.4102C37.2587 15.3888 40.3954 16.2154 42.6904 17.6137C42.6904 17.6137 41.4481 17.2112 40.1846 17.042Z" fill="url(#paint2_linear)"/>
<path fill-rule="evenodd" clip-rule="evenodd" d="M38.8499 34.5072C36.3242 35.7467 33.3297 36.4643 30.1189 36.4643C21.0938 36.4643 13.7775 30.7947 13.7775 23.8008C13.7775 18.6345 17.7698 14.1907 23.4942 12.2212C12.6073 12.8483 3.8587 21.5942 3.8587 32.3858C3.8587 44.8403 14.9606 55.1312 28.6554 55.1312C38.8817 55.1312 47.3941 49.2021 51.845 41.2695C45.7208 42.6468 38.471 40.0283 38.8499 34.5072Z" fill="url(#paint3_linear)"/>
<path fill-rule="evenodd" clip-rule="evenodd" d="M112.607 19.632C111.208 18.242 109.064 17.4207 106.329 17.4207H96.6317V39.5338H100.455L100.454 32.7237L100.451 32.7254V27.7941L100.454 27.7945L100.455 20.9588H106.018C108.844 20.9588 110.486 22.1928 110.524 24.5389L110.525 24.6864L110.522 24.8401C110.445 27.0248 108.722 28.3824 106.049 28.3824L104.404 28.3817L102.435 31.8252L105.241 31.8258L110.587 39.5338H115.125L109.25 31.1624L109.446 31.1028C112.325 30.1926 114.364 28.0671 114.409 24.5832L114.41 24.4021C114.41 22.4751 113.757 20.864 112.607 19.632ZM162.416 20.3738C160.182 18.478 157.825 17.4214 154.071 17.4214C147.567 17.4214 142.974 22.4688 142.875 28.4733L142.873 28.7337C142.873 35.0736 147.34 39.9218 154.134 39.9218C157.98 39.9218 161.02 38.3679 163.191 36.5343V27.3974L159.5 30.7538V34.7939C158.166 35.7884 156.336 36.4411 154.258 36.4411C149.887 36.4411 146.962 33.243 146.877 28.8682L146.875 28.6094C146.875 24.445 149.946 20.9643 153.916 20.9643C156.646 20.9643 158.321 21.8345 159.996 23.264L162.416 20.3738ZM189.961 28.6094C189.961 22.4871 185.308 17.4214 178.638 17.4214C172.041 17.4214 167.355 22.47 167.255 28.4754L167.254 28.7337C167.254 34.8561 171.907 39.9218 178.576 39.9218C185.174 39.9218 189.859 34.8732 189.959 28.8677L189.961 28.6094ZM92.0294 39.5488L82.4752 17.6389H78.9389L69.3846 39.5488L73.1993 39.5487L80.645 22.2074L88.1454 39.5487L92.0294 39.5488ZM141.24 39.5488L131.686 17.6389H128.15L118.595 39.5488L122.41 39.5487L129.856 22.2074L137.356 39.5487L141.24 39.5488ZM209.247 32.836L197.614 17.7943H194.078V39.5488H197.831V24.0721L209.805 39.5488H213V17.7943H209.247V32.836ZM171.255 28.6094C171.255 24.3828 174.264 20.9643 178.576 20.9643C182.855 20.9643 185.869 24.3434 185.957 28.4856L185.959 28.7337C185.959 32.9603 182.95 36.3789 178.638 36.3789C174.359 36.3789 171.345 32.9998 171.257 28.8576L171.255 28.6094Z" fill="url(#paint4_linear)"/>
<defs>
<linearGradient id="paint0_linear" x1="28.6351" y1="20.0396" x2="28.6351" y2="58.0232" gradientUnits="userSpaceOnUse">
<stop stop-color="#01E8F8"/>
<stop offset="1" stop-color="#01E8F8" stop-opacity="0"/>
</linearGradient>
<linearGradient id="paint1_linear" x1="47.0281" y1="22.5287" x2="48.1151" y2="36.5579" gradientUnits="userSpaceOnUse">
<stop stop-color="#01E8F7"/>
<stop offset="1" stop-color="#00C2FF"/>
</linearGradient>
<linearGradient id="paint2_linear" x1="22.5765" y1="12.7426" x2="37.328" y2="36.1551" gradientUnits="userSpaceOnUse">
<stop stop-color="#01E8F7"/>
<stop offset="1" stop-color="#00B3EC"/>
</linearGradient>
<linearGradient id="paint3_linear" x1="28.0571" y1="24.3579" x2="29.3741" y2="62.1314" gradientUnits="userSpaceOnUse">
<stop stop-color="#01E8F7"/>
<stop offset="1" stop-color="#00C2FF"/>
</linearGradient>
<linearGradient id="paint4_linear" x1="30.018" y1="9.08318" x2="57.9507" y2="94.6293" gradientUnits="userSpaceOnUse">
<stop stop-color="#01E8F7"/>
<stop offset="1" stop-color="#00B3EC"/>
</linearGradient>
</defs>
</svg>
