<svg width="48" height="48" viewBox="0 0 48 48" fill="none" xmlns="http://www.w3.org/2000/svg">
<path fill-rule="evenodd" clip-rule="evenodd" d="M19.9223 6.05419L18.0922 4.11263C21.2548 3.7052 29.5996 4.22767 37.6778 9.57695C37.7828 10.3158 37.7602 11.0522 37.7602 11.0522L38.3555 11.3744L38.3582 11.3786L38.3593 11.372L38.3722 11.3798C38.706 11.9531 39.0434 12.8078 39.259 13.8133C39.5199 15.0303 39.5942 16.4313 39.29 17.7711C38.9836 19.121 38.4019 20.2352 37.8323 21.0501C37.4116 21.6522 37.0103 22.0731 36.7466 22.3036C35.7147 22.3254 33.7938 23.0174 33.2446 25.4168C31.5898 26.3637 28.9919 27.3103 25.5602 27.3103C22.2822 27.3103 18.9385 26.3611 16.4249 24.5229C13.9215 22.6921 12.2402 19.982 12.2402 16.414C12.2402 13.5757 13.5123 11.3586 15.1256 9.7281C16.7442 8.09226 18.9569 6.76686 20.2402 6.32697L19.9223 6.05419ZM18.0405 6.58976C10.0775 8.1928 4 15.3623 4 24.0321C4 34.9926 13.2542 44.049 24.6699 44.049C33.1942 44.049 40.2899 38.8312 44 31.8501C39.0659 33.0216 33.1748 30.9389 33.1369 26.3861C31.3608 27.3 28.8034 28.1112 25.5602 28.1112C22.1415 28.1112 18.6252 27.1238 15.953 25.1696C13.2706 23.2079 11.4402 20.2696 11.4402 16.414C11.4402 13.3134 12.8359 10.9042 14.5573 9.16447C15.5533 8.16734 16.9189 7.22104 18.0405 6.58976ZM40.0412 13.6453C39.9333 13.1421 39.7953 12.6663 39.6386 12.2339C41.7788 13.8352 43.4454 16.0205 43.3065 19.0651C43.1065 23.451 40.4602 25.1765 38.7659 25.4641C39.5792 24.0981 38.9015 23.2353 38.6304 22.9477C38.4985 22.8078 38.2264 22.5723 37.7592 22.4252C37.9906 22.1715 38.24 21.8638 38.4878 21.5093C39.1049 20.6263 39.7366 19.4179 40.0701 17.9486C40.406 16.4693 40.3203 14.9471 40.0412 13.6453ZM34.2293 10.5931C33.6359 11.2421 33.0809 11.5535 32.9224 11.6379C29.4568 10.864 28.2082 8.98186 28.2082 8.98186C31.4772 8.96069 34.4277 9.77692 36.5863 11.1577C36.5863 11.1577 35.4178 10.7601 34.2293 10.5931Z" fill="#0085FF"/>
</svg>
